<?xml version="1.0" encoding="UTF-8"?>
<svg xmlns="http://www.w3.org/2000/svg" xmlns:xlink="http://www.w3.org/1999/xlink" width="64pt" height="64pt" viewBox="0 0 64 64" version="1.1">
<g id="surface11950868">
<path style=" stroke:none;fill-rule:nonzero;fill:rgb(0%,0%,0%);fill-opacity:1;" d="M 32 61.5 C 48.25 61.5 61.5 48.25 61.5 32 C 61.5 24.101562 58.449219 16.699219 52.851562 11.148438 C 47.300781 5.550781 39.898438 2.5 32 2.5 C 15.75 2.5 2.5 15.699219 2.5 32 C 2.5 37.199219 3.851562 42.25 6.449219 46.75 L 3.648438 57.050781 C 3.050781 59.25 5.050781 61.300781 7.300781 60.699219 L 17.949219 57.898438 C 22.199219 60.25 27.050781 61.5 32 61.5 Z M 32 61.5 "/>
<path style=" stroke:none;fill-rule:nonzero;fill:rgb(94.509804%,14.117647%,5.882353%);fill-opacity:1;" d="M 53.949219 10.101562 C 48.101562 4.25 40.300781 1 32 1 C 14.898438 1 1 14.898438 1 32 C 1 37.25 2.300781 42.398438 4.851562 46.949219 L 2.199219 56.648438 C 1.75 58.199219 2.199219 59.800781 3.351562 60.949219 C 4.5 62.101562 6.101562 62.550781 7.648438 62.148438 L 17.75 59.5 C 22.148438 61.800781 27.050781 63 32.050781 63 C 49.148438 63 63.050781 49.101562 63.050781 32 C 63 23.75 59.800781 15.949219 53.949219 10.101562 Z M 32 60 C 27.351562 60 22.699219 58.800781 18.601562 56.601562 C 18.398438 56.5 18.148438 56.398438 17.898438 56.398438 C 17.75 56.398438 17.648438 56.398438 17.5 56.449219 L 6.851562 59.25 C 6.101562 59.449219 5.601562 59.050781 5.398438 58.851562 C 5.199219 58.648438 4.800781 58.148438 5 57.398438 L 7.800781 47.101562 C 7.898438 46.699219 7.851562 46.300781 7.648438 45.949219 C 5.25 41.75 4 36.898438 4 32 C 4 16.550781 16.550781 4 32 4 C 39.5 4 46.550781 6.898438 51.800781 12.199219 C 57.101562 17.5 60.050781 24.550781 60 32 C 60 47.449219 47.449219 60 32 60 Z M 32 60 "/>
<path style=" stroke:none;fill-rule:nonzero;fill:rgb(98.039216%,12.54902%,4.313725%);fill-opacity:1;" d="M 48.648438 15.351562 C 44.199219 10.949219 38.300781 8.5 32 8.5 C 19.050781 8.5 8.5 19 8.5 32 C 8.5 36.148438 9.601562 40.199219 11.648438 43.75 C 12.449219 45.148438 12.648438 46.800781 12.25 48.351562 L 10.800781 53.601562 L 16.398438 52.148438 C 16.898438 52 17.398438 51.949219 17.898438 51.949219 C 18.898438 51.949219 19.898438 52.199219 20.75 52.699219 C 24.199219 54.5 28.050781 55.5 32 55.5 C 44.949219 55.5 55.5 44.949219 55.5 32 C 55.5 25.699219 53.050781 19.800781 48.648438 15.351562 Z M 46.449219 42.550781 C 45.851562 44.25 42.851562 45.949219 41.449219 46.050781 C 40.101562 46.148438 38.851562 46.648438 32.601562 44.199219 C 25.101562 41.25 20.351562 33.550781 20 33.050781 C 19.648438 32.550781 17 29.050781 17 25.398438 C 17 21.75 18.898438 20 19.601562 19.25 C 20.300781 18.5 21.050781 18.351562 21.550781 18.351562 C 22.050781 18.351562 22.550781 18.351562 22.949219 18.351562 C 23.5 18.351562 24.050781 18.398438 24.601562 19.601562 C 25.25 21.050781 26.699219 24.699219 26.851562 25.050781 C 27.050781 25.398438 27.148438 25.851562 26.898438 26.351562 C 26.648438 26.851562 26.550781 27.148438 26.148438 27.601562 C 25.800781 28.050781 25.351562 28.550781 25.050781 28.898438 C 24.699219 29.25 24.300781 29.648438 24.75 30.398438 C 25.199219 31.148438 26.648438 33.550781 28.851562 35.5 C 31.648438 38 34.050781 38.800781 34.800781 39.148438 C 35.550781 39.5 35.949219 39.449219 36.398438 38.949219 C 36.851562 38.449219 38.25 36.800781 38.75 36.050781 C 39.25 35.300781 39.75 35.449219 40.398438 35.699219 C 41.101562 35.949219 44.699219 37.75 45.449219 38.101562 C 46.199219 38.449219 46.699219 38.648438 46.851562 38.949219 C 47.050781 39.351562 47.050781 40.800781 46.449219 42.550781 Z M 46.449219 42.550781 "/>
</g>
</svg>
